<?xml version="1.0" encoding="utf-8"?>
<!-- Generator: Adobe Illustrator 16.0.3, SVG Export Plug-In . SVG Version: 6.00 Build 0)  -->
<!DOCTYPE svg PUBLIC "-//W3C//DTD SVG 1.1//EN" "http://www.w3.org/Graphics/SVG/1.1/DTD/svg11.dtd">
<svg version="1.1" id="Layer_1" xmlns="http://www.w3.org/2000/svg" xmlns:xlink="http://www.w3.org/1999/xlink" x="0px" y="0px"
	 width="250px" height="250px" viewBox="0 0 250 250" enable-background="new 0 0 250 250" xml:space="preserve">
<path fill="#FFFFFF" d="M60.15,226.482c0,4.742-2.958,4.722-8.908,4.566h-1.43v-9.25h1.146
	C56.404,221.803,60.15,221.428,60.15,226.482z M58.62,209.296c-0.024,3.655-2.399,4.308-6.05,4.169h-2.757v-8.338h2.3
	C56.342,205.127,58.65,205.045,58.62,209.296z M62.662,216.548c3.483-1.771,6.238-4.913,6.238-8.793
	c0-8.222-5.141-11.192-12.793-11.192H38.621v43.057h17.248c7.877,0,15.589-2.967,15.589-11.993c0-5.994-2.63-10.162-8.796-10.964
	V216.548z M101.967,223.57h-9.804l4.75-14.701h0.363L101.967,223.57z M118.979,239.616l-15.718-43.056H91.039l-16.063,43.056h11.875
	l2.973-7.479h14.424l2.797,7.479H118.979z M149.24,196.355v23.412c0,5.601-0.629,11.701-7.484,11.701
	c-6.852,0-7.479-6.104-7.479-11.701v-23.412H123.61v24.951c0,5.541,0.219,11.021,4.297,15.188c3.428,3.545,9.063,4.797,13.85,4.797
	c4.785,0,10.421-1.252,13.854-4.797c4.072-4.164,4.297-9.646,4.297-15.188v-24.951H149.24z M197.605,206.04v-9.479h-26.992v43.058
	h26.992v-9.479h-15.795v-7.425h15.108v-9.479h-15.108v-7.193L197.605,206.04L197.605,206.04z M228.359,210.493
	c0,4.687-4.108,5.37-7.769,5.37h-1.084v-10.736h1.084C224.251,205.127,228.359,205.813,228.359,210.493z M240.008,209.811
	c0-9.188-6.449-13.248-14.961-13.248H208.32v43.057h11.188v-16.559h0.111l10.566,16.559h13.938l-13.54-17.645
	C236.695,220.889,240.008,215.747,240.008,209.811z"/>
<polygon fill="#FFFFFF" points="225.982,155.525 94.625,24.166 225.982,24.166 "/>
<rect fill="#E96191" width="250.932" height="250.414"/>
<rect x="137.875" y="214.375" fill="none" width="102.625" height="26.625"/>
<g enable-background="new    ">
	<path fill="#FFFFFF" d="M155.366,223.912c-1.16-1.566-3.046-2.408-4.989-2.408c-3.48,0-5.83,2.669-5.83,6.063
		c0,3.453,2.379,5.947,5.917,5.947c1.856,0,3.713-0.898,4.902-2.32v6.815c-1.886,0.581-3.249,1.017-5.019,1.017
		c-3.046,0-5.947-1.16-8.209-3.221c-2.408-2.176-3.511-5.019-3.511-8.267c0-2.988,1.131-5.858,3.222-8.007
		c2.146-2.204,5.25-3.538,8.323-3.538c1.828,0,3.511,0.405,5.192,1.103L155.366,223.912L155.366,223.912z"/>
	<path fill="#FFFFFF" d="M172.766,225.014v-8.439h5.687v21.871h-5.687v-8.963h-8.209v8.963h-5.686v-21.871h5.686v8.439H172.766z"/>
	<path fill="#FFFFFF" d="M187.844,238.443h-5.686v-21.871h5.686V238.443z"/>
	<path fill="#FFFFFF" d="M191.555,216.572h5.686l10.412,13.373h0.06v-13.373h5.687v21.871h-5.687l-10.414-13.4h-0.058v13.4h-5.686
		V216.572z"/>
	<path fill="#FFFFFF" d="M222.672,234.645l-1.508,3.801h-6.034l8.412-21.871h6.208l8.236,21.871h-6.062l-1.422-3.801H222.672z
		 M226.646,223.332h-0.06l-2.351,6.961h4.729L226.646,223.332z"/>
</g>
</svg>
