<?xml version="1.0" encoding="utf-8"?>
<!-- Generator: Adobe Illustrator 15.0.2, SVG Export Plug-In . SVG Version: 6.00 Build 0)  -->
<!DOCTYPE svg PUBLIC "-//W3C//DTD SVG 1.1//EN" "http://www.w3.org/Graphics/SVG/1.1/DTD/svg11.dtd">
<svg version="1.1" id="Layer_1" xmlns="http://www.w3.org/2000/svg" xmlns:xlink="http://www.w3.org/1999/xlink" x="0px" y="0px"
	 width="250px" height="250px" viewBox="0 0 250 250" enable-background="new 0 0 250 250" xml:space="preserve">
<rect x="0" y="0.148" fill="#191A6D" width="250" height="250.003"/>
<path fill="#FFFFFF" d="M45.544,213c0,4.741-2.958,4.721-8.908,4.568h-1.43v-9.25h1.146C41.797,208.318,45.544,207.943,45.544,213z
	 M44.014,195.813c-0.024,3.655-2.399,4.307-6.05,4.169h-2.757v-8.338h2.3C41.735,191.644,44.043,191.562,44.014,195.813z
	 M48.055,203.064c3.483-1.77,6.238-4.913,6.238-8.793c0-8.222-5.141-11.193-12.793-11.193H24.014v43.055h17.248
	c7.877,0,15.589-2.965,15.589-11.993c0-5.994-2.63-10.162-8.796-10.964V203.064z M87.36,210.088h-9.804l4.75-14.702h0.363
	L87.36,210.088z M104.373,226.133l-15.718-43.055H76.432l-16.063,43.055h11.875l2.973-7.48h14.424l2.797,7.48H104.373z
	 M134.634,182.872v23.413c0,5.6-0.629,11.701-7.484,11.701c-6.852,0-7.479-6.102-7.479-11.701v-23.413h-10.667v24.952
	c0,5.541,0.219,11.023,4.297,15.188c3.428,3.545,9.063,4.797,13.85,4.797c4.785,0,10.421-1.252,13.854-4.797
	c4.073-4.164,4.297-9.646,4.297-15.188v-24.952H134.634z M183,192.557v-9.479h-26.992v43.055H183v-9.478h-15.796v-7.424h15.111
	v-9.479h-15.111v-7.196H183z M213.753,197.01c0,4.686-4.108,5.37-7.766,5.37h-1.084v-10.736h1.084
	C209.645,191.644,213.753,192.328,213.753,197.01z M225.401,196.326c0-9.188-6.45-13.248-14.961-13.248h-16.727v43.055h11.189
	v-16.557h0.111l10.568,16.557h13.936l-13.54-17.643C222.089,207.405,225.401,202.264,225.401,196.326z"/>
<polygon fill="#FFFFFF" points="225.982,155.526 94.625,24.166 225.982,24.166 "/>
</svg>
