<?xml version="1.0" encoding="utf-8"?>
<!-- Generator: Adobe Illustrator 16.0.3, SVG Export Plug-In . SVG Version: 6.00 Build 0)  -->
<!DOCTYPE svg PUBLIC "-//W3C//DTD SVG 1.1//EN" "http://www.w3.org/Graphics/SVG/1.1/DTD/svg11.dtd">
<svg version="1.1" id="Layer_1" xmlns="http://www.w3.org/2000/svg" xmlns:xlink="http://www.w3.org/1999/xlink" x="0px" y="0px"
	 width="250px" height="250px" viewBox="0 0 250 250" enable-background="new 0 0 250 250" xml:space="preserve">
<path fill="#FFFFFF" d="M60.15,226.482c0,4.742-2.958,4.722-8.908,4.563h-1.43v-9.25h1.146
	C56.404,221.803,60.15,221.428,60.15,226.482z M58.62,209.296c-0.024,3.655-2.399,4.308-6.05,4.169h-2.757v-8.338h2.3
	C56.342,205.127,58.65,205.045,58.62,209.296z M62.662,216.548c3.483-1.771,6.238-4.913,6.238-8.793
	c0-8.222-5.141-11.192-12.793-11.192H38.621v43.061h17.248c7.877,0,15.589-2.971,15.589-11.993c0-5.993-2.63-10.161-8.796-10.964
	V216.548z M101.967,223.57h-9.804l4.75-14.701h0.363L101.967,223.57z M118.979,239.616l-15.718-43.056H91.039l-16.063,43.056h11.875
	l2.973-7.479h14.424l2.797,7.479H118.979z M149.24,196.355v23.412c0,5.601-0.629,11.695-7.484,11.695
	c-6.852,0-7.479-6.104-7.479-11.695v-23.412H123.61v24.951c0,5.541,0.219,11.021,4.297,15.188c3.428,3.545,9.063,4.797,13.85,4.797
	c4.785,0,10.421-1.252,13.854-4.797c4.072-4.164,4.297-9.646,4.297-15.188v-24.951H149.24z M197.605,206.04v-9.479h-26.992v43.062
	h26.992v-9.479h-15.795v-7.427h15.104v-9.479h-15.104v-7.191L197.605,206.04L197.605,206.04z M228.359,210.493
	c0,4.687-4.108,5.37-7.771,5.37h-1.084v-10.736h1.084C224.251,205.127,228.359,205.813,228.359,210.493z M240.008,209.811
	c0-9.188-6.449-13.248-14.961-13.248H208.32v43.061h11.188v-16.563h0.111l10.566,16.563h13.938l-13.54-17.646
	C236.695,220.889,240.008,215.747,240.008,209.811z"/>
<polygon fill="#FFFFFF" points="225.982,155.525 94.625,24.166 225.982,24.166 "/>
<rect x="-1.364" y="-0.859" fill="#007FA8" width="252.295" height="251.273"/>
<g>
	<path fill="#FFFFFF" d="M160.678,222.45c-1.044-0.87-2.379-1.45-3.771-1.45c-1.046,0-2.437,0.609-2.437,1.827
		c0,1.276,1.536,1.771,2.522,2.089l1.45,0.436c3.045,0.898,5.396,2.438,5.396,5.976c0,2.176-0.522,4.409-2.263,5.889
		c-1.713,1.45-4.004,2.06-6.208,2.06c-2.755,0-5.453-0.928-7.687-2.494l2.437-4.582c1.422,1.246,3.104,2.262,5.047,2.262
		c1.335,0,2.756-0.667,2.756-2.204c0-1.596-2.233-2.146-3.45-2.495c-3.568-1.015-5.919-1.943-5.919-6.178
		c0-4.438,3.162-7.339,7.542-7.339c2.204,0,4.902,0.696,6.846,1.798L160.678,222.45z"/>
	<path fill="#FFFFFF" d="M166.533,216.822h8.701c4.699,0,7.949,2.177,7.949,7.193c0,5.164-2.785,7.426-7.746,7.426h-3.22v7.252
		h-5.686L166.533,216.822L166.533,216.822z M172.219,226.859h0.957c2.061,0,4.09,0,4.09-2.67c0-2.754-1.886-2.783-4.09-2.783h-0.957
		V226.859z"/>
	<path fill="#FFFFFF" d="M189.126,234.895l-1.509,3.801h-6.033l8.412-21.871h6.208l8.237,21.871h-6.063l-1.421-3.801H189.126z
		 M193.1,223.582h-0.058l-2.351,6.961h4.729L193.1,223.582z"/>
	<path fill="#FFFFFF" d="M211.891,238.693h-5.686v-21.871h5.686V238.693z"/>
	<path fill="#FFFFFF" d="M215.602,216.822h5.686l10.413,13.373h0.059v-13.373h5.685v21.871h-5.685l-10.413-13.4h-0.059v13.4h-5.686
		V216.822z"/>
</g>
</svg>
