<?xml version="1.0" encoding="utf-8"?>
<!-- Generator: Adobe Illustrator 15.0.2, SVG Export Plug-In . SVG Version: 6.00 Build 0)  -->
<!DOCTYPE svg PUBLIC "-//W3C//DTD SVG 1.1//EN" "http://www.w3.org/Graphics/SVG/1.1/DTD/svg11.dtd">
<svg version="1.1" id="Layer_1" xmlns="http://www.w3.org/2000/svg" xmlns:xlink="http://www.w3.org/1999/xlink" x="0px" y="0px"
	 width="250px" height="250px" viewBox="0 0 250 250" enable-background="new 0 0 250 250" xml:space="preserve">
<path fill="#FFFFFF" d="M60.15,226.482c0,4.742-2.958,4.722-8.908,4.564h-1.43v-9.25h1.146
	C56.404,221.802,60.15,221.427,60.15,226.482z M58.62,209.296c-0.024,3.655-2.399,4.308-6.05,4.169h-2.757v-8.338h2.3
	C56.342,205.127,58.65,205.045,58.62,209.296z M62.662,216.548c3.483-1.771,6.238-4.913,6.238-8.793
	c0-8.222-5.141-11.192-12.793-11.192H38.621v43.059h17.248c7.877,0,15.589-2.969,15.589-11.993c0-5.994-2.63-10.162-8.796-10.964
	V216.548z M101.967,223.57h-9.804l4.75-14.701h0.363L101.967,223.57z M118.979,239.616l-15.718-43.056H91.039l-16.063,43.056h11.875
	l2.973-7.48h14.424l2.797,7.48H118.979z M149.24,196.355v23.412c0,5.601-0.629,11.697-7.484,11.697
	c-6.852,0-7.479-6.102-7.479-11.697v-23.412H123.61v24.951c0,5.541,0.219,11.021,4.297,15.188c3.428,3.545,9.063,4.797,13.85,4.797
	c4.785,0,10.421-1.252,13.854-4.797c4.072-4.164,4.297-9.646,4.297-15.188v-24.951H149.24z M197.605,206.04v-9.479h-26.992v43.06
	h26.992v-9.479h-15.795v-7.426h15.106v-9.479h-15.106v-7.193L197.605,206.04L197.605,206.04z M228.359,210.493
	c0,4.687-4.108,5.37-7.771,5.37h-1.084v-10.736h1.084C224.251,205.127,228.359,205.813,228.359,210.493z M240.008,209.811
	c0-9.188-6.449-13.248-14.961-13.248H208.32v43.059h11.188v-16.561h0.111l10.566,16.561h13.938l-13.54-17.646
	C236.695,220.889,240.008,215.747,240.008,209.811z"/>
<polygon fill="#FFFFFF" points="225.982,155.525 94.625,24.166 225.982,24.166 "/>
<rect fill="#2B977D" width="250.932" height="250.414"/>
<g>
	<path fill="#FFFFFF" d="M112.392,189.759c-1.16-1.566-3.046-2.408-4.989-2.408c-3.48,0-5.83,2.669-5.83,6.063
		c0,3.452,2.378,5.946,5.917,5.946c1.856,0,3.713-0.898,4.902-2.32v6.816c-1.886,0.581-3.249,1.016-5.019,1.016
		c-3.045,0-5.946-1.16-8.209-3.22c-2.407-2.176-3.51-5.019-3.51-8.267c0-2.988,1.132-5.859,3.22-8.006
		c2.146-2.205,5.251-3.539,8.325-3.539c1.827,0,3.51,0.406,5.192,1.102V189.759z"/>
	<path fill="#FFFFFF" d="M133.098,199.476v4.815h-18.738l10.355-17.056h-8.586v-4.815h18.1l-10.297,17.056H133.098z"/>
	<path fill="#FFFFFF" d="M142.085,187.235v3.654h6.41v4.815h-6.41v3.771h6.759v4.815h-12.444V182.42h12.444v4.815H142.085z"/>
	<path fill="#FFFFFF" d="M167.983,189.759c-1.16-1.566-3.046-2.408-4.989-2.408c-3.48,0-5.83,2.669-5.83,6.063
		c0,3.452,2.378,5.946,5.917,5.946c1.856,0,3.713-0.898,4.902-2.32v6.816c-1.886,0.581-3.249,1.016-5.019,1.016
		c-3.045,0-5.946-1.16-8.209-3.22c-2.407-2.176-3.51-5.019-3.51-8.267c0-2.988,1.132-5.859,3.22-8.006
		c2.146-2.205,5.251-3.539,8.325-3.539c1.827,0,3.51,0.406,5.192,1.102V189.759z"/>
	<path fill="#FFFFFF" d="M185.383,190.86v-8.44h5.686v21.871h-5.686v-8.963h-8.209v8.963h-5.686V182.42h5.686v8.44H185.383z"/>
	<path fill="#FFFFFF" d="M114.944,239.091h-7.078l-5.366-8.412h-0.058v8.412h-5.686V217.22h8.499c4.322,0,7.6,2.06,7.6,6.729
		c0,3.017-1.683,5.627-4.786,6.179L114.944,239.091z M102.442,227.023h0.551c1.856,0,3.945-0.348,3.945-2.727
		c0-2.378-2.089-2.727-3.945-2.727h-0.551V227.023z"/>
	<path fill="#FFFFFF" d="M122.162,222.035v3.654h6.41v4.815h-6.41v3.771h6.759v4.815h-12.444V217.22h12.444v4.815H122.162z"/>
	<path fill="#FFFFFF" d="M132.426,217.22h8.702c4.699,0,7.948,2.176,7.948,7.193c0,5.163-2.785,7.426-7.745,7.426h-3.22v7.252
		h-5.686V217.22z M138.111,227.256h0.957c2.06,0,4.09,0,4.09-2.669c0-2.755-1.886-2.784-4.09-2.784h-0.957V227.256z"/>
	<path fill="#FFFFFF" d="M170.565,217.22v12.299c0,2.813-0.116,5.599-2.292,7.716c-1.827,1.799-4.699,2.437-7.251,2.437
		c-2.553,0-5.425-0.638-7.252-2.437c-2.176-2.117-2.292-4.902-2.292-7.716V217.22h5.686v11.516c0,2.843,0.203,5.946,3.858,5.946
		c3.654,0,3.857-3.104,3.857-5.946V217.22H170.565z"/>
	<path fill="#FFFFFF" d="M174.156,239.091V217.22h8.122c3.887,0,6.497,1.508,6.497,5.686c0,1.972-0.638,3.567-2.407,4.467v0.058
		c3.133,0.406,4.467,2.524,4.467,5.569c0,4.583-3.916,6.092-7.919,6.092H174.156z M179.842,225.806h0.638
		c1.509,0,3.075-0.261,3.075-2.117c0-2.002-1.77-2.118-3.307-2.118h-0.406V225.806z M179.842,234.74h0.725
		c1.683,0,4.525,0.087,4.525-2.321c0-2.64-2.813-2.378-4.67-2.378h-0.58V234.74z"/>
	<path fill="#FFFFFF" d="M199.475,234.275h6.816v4.815h-12.502V217.22h5.686V234.275z"/>
	<path fill="#FFFFFF" d="M213.829,239.091h-5.686V217.22h5.686V239.091z"/>
	<path fill="#FFFFFF" d="M233.174,224.559c-1.16-1.566-3.046-2.408-4.989-2.408c-3.48,0-5.83,2.669-5.83,6.063
		c0,3.452,2.378,5.946,5.917,5.946c1.856,0,3.713-0.898,4.902-2.32v6.816c-1.886,0.581-3.249,1.016-5.019,1.016
		c-3.045,0-5.946-1.16-8.209-3.22c-2.407-2.176-3.51-5.019-3.51-8.267c0-2.988,1.132-5.859,3.22-8.006
		c2.146-2.205,5.251-3.539,8.325-3.539c1.827,0,3.51,0.406,5.192,1.103V224.559z"/>
</g>
</svg>
