<?xml version="1.0" encoding="utf-8"?>
<!-- Generator: Adobe Illustrator 15.0.2, SVG Export Plug-In . SVG Version: 6.00 Build 0)  -->
<!DOCTYPE svg PUBLIC "-//W3C//DTD SVG 1.1//EN" "http://www.w3.org/Graphics/SVG/1.1/DTD/svg11.dtd">
<svg version="1.1" id="Layer_1" xmlns="http://www.w3.org/2000/svg" xmlns:xlink="http://www.w3.org/1999/xlink" x="0px" y="0px"
	 width="250px" height="250px" viewBox="0 0 250 250" enable-background="new 0 0 250 250" xml:space="preserve">
<path fill="#FFFFFF" d="M60.15,226.482c0,4.742-2.958,4.722-8.908,4.565h-1.43v-9.25h1.146
	C56.404,221.802,60.15,221.427,60.15,226.482z M58.62,209.296c-0.024,3.655-2.399,4.308-6.05,4.169h-2.757v-8.338h2.3
	C56.342,205.127,58.65,205.045,58.62,209.296z M62.662,216.548c3.483-1.771,6.238-4.913,6.238-8.793
	c0-8.222-5.141-11.192-12.793-11.192H38.621v43.058h17.248c7.877,0,15.589-2.968,15.589-11.993c0-5.994-2.63-10.162-8.796-10.964
	V216.548z M101.967,223.57h-9.804l4.75-14.701h0.363L101.967,223.57z M118.979,239.616l-15.718-43.056H91.039l-16.063,43.056h11.875
	l2.973-7.48h14.424l2.797,7.48H118.979z M149.24,196.355v23.412c0,5.601-0.629,11.698-7.484,11.698
	c-6.852,0-7.479-6.102-7.479-11.698v-23.412H123.61v24.951c0,5.541,0.219,11.021,4.297,15.188c3.428,3.545,9.063,4.797,13.85,4.797
	c4.785,0,10.421-1.252,13.854-4.797c4.072-4.164,4.297-9.646,4.297-15.188v-24.951H149.24z M197.605,206.04v-9.479h-26.992v43.059
	h26.992v-9.479h-15.795v-7.426h15.107v-9.479h-15.107v-7.193L197.605,206.04L197.605,206.04z M228.359,210.493
	c0,4.687-4.108,5.37-7.77,5.37h-1.084v-10.736h1.084C224.251,205.127,228.359,205.813,228.359,210.493z M240.008,209.811
	c0-9.188-6.449-13.248-14.961-13.248H208.32v43.058h11.188v-16.56h0.111l10.566,16.56h13.938l-13.54-17.646
	C236.695,220.889,240.008,215.747,240.008,209.811z"/>
<polygon fill="#FFFFFF" points="225.982,155.525 94.625,24.166 225.982,24.166 "/>
<rect fill="#81AEBB" width="250.932" height="250.414"/>
<rect x="320.148" y="-94.574" fill="#28702B" width="70.496" height="70.496"/>
<rect x="320.148" y="-94.574" fill="none" stroke="#FFFFFF" stroke-width="3.788" stroke-miterlimit="10" width="70.496" height="70.496"/>
<rect x="245.864" y="-94.574" fill="#327A2F" width="70.496" height="70.496"/>
<rect x="245.864" y="-94.574" fill="none" stroke="#FFFFFF" stroke-width="3.788" stroke-miterlimit="10" width="70.496" height="70.496"/>
<rect x="-50.927" y="-94.575" fill="#77A4B4" width="70.497" height="70.497"/>
<rect x="-50.927" y="-94.575" fill="none" stroke="#FFFFFF" stroke-width="3.788" stroke-miterlimit="10" width="70.497" height="70.497"/>
<rect x="23.357" y="-94.575" fill="#6C9DA5" width="70.497" height="70.497"/>
<rect x="23.357" y="-94.575" fill="none" stroke="#FFFFFF" stroke-width="3.788" stroke-miterlimit="10" width="70.497" height="70.497"/>
<rect x="171.927" y="-94.575" fill="#488975" width="70.497" height="70.497"/>
<rect x="171.927" y="-94.575" fill="none" stroke="#FFFFFF" stroke-width="3.788" stroke-miterlimit="10" width="70.497" height="70.497"/>
<rect x="97.642" y="-94.575" fill="#558E85" width="70.497" height="70.497"/>
<rect x="97.642" y="-94.575" fill="none" stroke="#FFFFFF" stroke-width="3.788" stroke-miterlimit="10" width="70.497" height="70.497"/>
<text transform="matrix(1 0 0 1 -44.7734 -75.9521)" fill="#FFFFFF" font-family="'FuturaCom-Book'" font-size="5">RGB 92/175/173</text>
<text transform="matrix(1 0 0 1 29.7114 -75.9521)" fill="#FFFFFF" font-family="'FuturaCom-Book'" font-size="5">RGB 77/168/158</text>
<text transform="matrix(1 0 0 1 104.6914 -75.9521)" fill="#FFFFFF" font-family="'FuturaCom-Book'" font-size="5">RGB 43/151/125</text>
<text transform="matrix(1 0 0 1 178.751 -75.9521)" fill="#FFFFFF" font-family="'FuturaCom-Book'" font-size="5">RGB 0/146/108</text>
<text transform="matrix(1 0 0 1 252.7266 -75.9521)" fill="#FFFFFF" font-family="'FuturaCom-Book'" font-size="5">RGB 0/130/49</text>
<text transform="matrix(1 0 0 1 327.0762 -75.9521)" fill="#FFFFFF" font-family="'FuturaCom-Book'" font-size="5">RGB 0/122/45</text>
</svg>
