<?xml version="1.0" encoding="utf-8"?>
<!-- Generator: Adobe Illustrator 15.0.2, SVG Export Plug-In . SVG Version: 6.00 Build 0)  -->
<!DOCTYPE svg PUBLIC "-//W3C//DTD SVG 1.1//EN" "http://www.w3.org/Graphics/SVG/1.1/DTD/svg11.dtd">
<svg version="1.1" id="Layer_1" xmlns="http://www.w3.org/2000/svg" xmlns:xlink="http://www.w3.org/1999/xlink" x="0px" y="0px"
	 width="250px" height="250px" viewBox="0 0 250 250" enable-background="new 0 0 250 250" xml:space="preserve">
<path fill="#FFFFFF" d="M60.15,226.482c0,4.742-2.958,4.722-8.908,4.564h-1.43v-9.25h1.146
	C56.404,221.802,60.15,221.427,60.15,226.482z M58.62,209.296c-0.024,3.655-2.399,4.308-6.05,4.169h-2.757v-8.338h2.3
	C56.342,205.127,58.65,205.045,58.62,209.296z M62.662,216.548c3.483-1.771,6.238-4.913,6.238-8.793
	c0-8.222-5.141-11.192-12.793-11.192H38.621v43.059h17.248c7.877,0,15.589-2.969,15.589-11.993c0-5.994-2.63-10.162-8.796-10.964
	V216.548z M101.967,223.57h-9.804l4.75-14.701h0.363L101.967,223.57z M118.979,239.616l-15.718-43.056H91.039l-16.063,43.056h11.875
	l2.973-7.48h14.424l2.797,7.48H118.979z M149.24,196.355v23.412c0,5.601-0.629,11.697-7.484,11.697
	c-6.852,0-7.479-6.102-7.479-11.697v-23.412H123.61v24.951c0,5.541,0.219,11.021,4.297,15.188c3.428,3.545,9.063,4.797,13.85,4.797
	c4.785,0,10.421-1.252,13.854-4.797c4.072-4.164,4.297-9.646,4.297-15.188v-24.951H149.24z M197.605,206.04v-9.479h-26.992v43.06
	h26.992v-9.479h-15.795v-7.426h15.106v-9.479h-15.106v-7.193L197.605,206.04L197.605,206.04z M228.359,210.493
	c0,4.687-4.108,5.37-7.771,5.37h-1.084v-10.736h1.084C224.251,205.127,228.359,205.813,228.359,210.493z M240.008,209.811
	c0-9.188-6.449-13.248-14.961-13.248H208.32v43.059h11.188v-16.561h0.111l10.566,16.561h13.938l-13.54-17.646
	C236.695,220.889,240.008,215.747,240.008,209.811z"/>
<polygon fill="#FFFFFF" points="225.982,155.525 94.625,24.166 225.982,24.166 "/>
<rect fill="#6BBAB6" width="250.932" height="250.414"/>
<g>
	<path fill="#FFFFFF" d="M98.044,182.07h5.686l10.413,13.372h0.059V182.07h5.685v21.871h-5.685l-10.414-13.401h-0.058v13.401h-5.686
		V182.07z"/>
	<path fill="#FFFFFF" d="M129.278,186.886v3.654h6.41v4.815h-6.41v3.771h6.759v4.815h-12.444V182.07h12.444v4.815H129.278z"/>
	<path fill="#FFFFFF" d="M146.968,196.196h0.058l4.583-14.126h4.525l4.293,14.126h0.059l4.119-14.126h5.917l-6.991,21.871h-5.801
		l-3.829-12.676h-0.058l-4.293,12.676h-5.772l-6.527-21.871h5.918L146.968,196.196z"/>
	<path fill="#FFFFFF" d="M115.245,233.926v4.815H96.507l10.355-17.056h-8.586v-4.815h18.1l-10.297,17.056H115.245z"/>
	<path fill="#FFFFFF" d="M124.232,221.686v3.654h6.41v4.815h-6.41v3.771h6.759v4.815h-12.444V216.87h12.444v4.815H124.232z"/>
	<path fill="#FFFFFF" d="M140.065,234.941l-1.509,3.8h-6.033l8.412-21.871h6.208l8.237,21.871h-6.063l-1.421-3.8H140.065z
		 M144.039,223.629h-0.058l-2.35,6.961h4.729L144.039,223.629z"/>
	<path fill="#FFFFFF" d="M162.83,233.926h6.816v4.815h-12.502V216.87h5.686V233.926z"/>
	<path fill="#FFFFFF" d="M177.068,234.941l-1.509,3.8h-6.033l8.412-21.871h6.208l8.237,21.871h-6.063l-1.421-3.8H177.068z
		 M181.042,223.629h-0.058l-2.35,6.961h4.729L181.042,223.629z"/>
	<path fill="#FFFFFF" d="M194.147,216.87h5.686l10.413,13.372h0.059V216.87h5.685v21.871h-5.685l-10.414-13.401h-0.058v13.401
		h-5.686V216.87z"/>
	<path fill="#FFFFFF" d="M219.696,216.87h8.063c6.092,0,11.11,4.786,11.11,10.936s-5.048,10.936-11.11,10.936h-8.063V216.87z
		 M225.382,233.926h1.276c3.394,0,6.294-1.856,6.294-6.12c0-3.916-2.581-6.12-6.236-6.12h-1.334V233.926z"/>
</g>
</svg>
