<?xml version="1.0" encoding="utf-8"?>
<!-- Generator: Adobe Illustrator 15.0.2, SVG Export Plug-In . SVG Version: 6.00 Build 0)  -->
<!DOCTYPE svg PUBLIC "-//W3C//DTD SVG 1.1//EN" "http://www.w3.org/Graphics/SVG/1.1/DTD/svg11.dtd">
<svg version="1.1" id="Layer_1" xmlns="http://www.w3.org/2000/svg" xmlns:xlink="http://www.w3.org/1999/xlink" x="0px" y="0px"
	 width="250px" height="250px" viewBox="0 0 250 250" enable-background="new 0 0 250 250" xml:space="preserve">
<path fill="#FFFFFF" d="M60.15,226.482c0,4.742-2.958,4.722-8.908,4.568h-1.43v-9.25h1.146
	C56.404,221.802,60.15,221.427,60.15,226.482z M58.62,209.296c-0.024,3.655-2.399,4.308-6.05,4.169h-2.757v-8.338h2.3
	C56.342,205.127,58.65,205.045,58.62,209.296z M62.662,216.548c3.483-1.771,6.238-4.913,6.238-8.793
	c0-8.222-5.141-11.192-12.793-11.192H38.621v43.055h17.248c7.877,0,15.589-2.965,15.589-11.993c0-5.994-2.63-10.162-8.796-10.964
	V216.548z M101.967,223.57h-9.804l4.75-14.701h0.363L101.967,223.57z M118.979,239.616l-15.718-43.056H91.039l-16.063,43.056h11.875
	l2.973-7.48h14.424l2.797,7.48H118.979z M149.24,196.355v23.412c0,5.601-0.629,11.701-7.484,11.701
	c-6.852,0-7.479-6.102-7.479-11.701v-23.412H123.61v24.951c0,5.541,0.219,11.023,4.297,15.188c3.428,3.545,9.063,4.797,13.85,4.797
	c4.785,0,10.421-1.252,13.854-4.797c4.072-4.164,4.297-9.646,4.297-15.188v-24.951H149.24z M197.605,206.04v-9.479h-26.992v43.056
	h26.992v-9.478h-15.795v-7.425h15.11v-9.479h-15.11v-7.195L197.605,206.04L197.605,206.04z M228.359,210.493
	c0,4.687-4.108,5.37-7.767,5.37h-1.084v-10.736h1.084C224.251,205.127,228.359,205.813,228.359,210.493z M240.008,209.811
	c0-9.188-6.449-13.248-14.961-13.248H208.32v43.055h11.188v-16.557h0.111l10.567,16.557h13.937l-13.54-17.643
	C236.695,220.889,240.008,215.747,240.008,209.811z"/>
<polygon fill="#FFFFFF" points="225.982,155.525 94.625,24.166 225.982,24.166 "/>
<rect fill="#E00053" width="250.932" height="250.414"/>
<g>
	<path fill="#FFFFFF" d="M117.674,234.921l-1.47,3.704h-5.881l8.2-21.318h6.051l8.029,21.318h-5.91l-1.385-3.704H117.674z
		 M121.547,223.895h-0.057l-2.29,6.785h4.608L121.547,223.895z"/>
	<path fill="#FFFFFF" d="M152.818,217.307v11.987c0,2.743-0.113,5.457-2.234,7.521c-1.781,1.754-4.581,2.375-7.068,2.375
		c-2.488,0-5.287-0.621-7.068-2.375c-2.121-2.063-2.234-4.777-2.234-7.521v-11.987h5.542v11.226c0,2.771,0.198,5.796,3.761,5.796
		c3.563,0,3.76-3.025,3.76-5.796v-11.226H152.818z"/>
	<path fill="#FFFFFF" d="M168.027,222.791c-1.018-0.848-2.317-1.413-3.676-1.413c-1.018,0-2.375,0.595-2.375,1.781
		c0,1.243,1.498,1.725,2.461,2.034l1.412,0.426c2.971,0.876,5.26,2.375,5.26,5.824c0,2.119-0.51,4.298-2.205,5.738
		c-1.668,1.414-3.901,2.008-6.051,2.008c-2.687,0-5.315-0.903-7.492-2.432l2.375-4.468c1.386,1.216,3.025,2.206,4.92,2.206
		c1.301,0,2.686-0.65,2.686-2.148c0-1.556-2.177-2.093-3.363-2.433c-3.479-0.989-5.769-1.894-5.769-6.022
		c0-4.324,3.082-7.152,7.351-7.152c2.149,0,4.778,0.679,6.674,1.753L168.027,222.791z"/>
	<path fill="#FFFFFF" d="M182.221,238.625h-5.541V222h-4.58v-4.693h14.701V222h-4.58V238.625L182.221,238.625z"/>
	<path fill="#FFFFFF" d="M206.536,238.625h-6.899l-5.229-8.199h-0.058v8.199h-5.541v-21.318h8.283c4.213,0,7.408,2.008,7.408,6.56
		c0,2.94-1.641,5.485-4.665,6.022L206.536,238.625z M194.35,226.863h0.537c1.811,0,3.846-0.34,3.846-2.658s-2.035-2.658-3.846-2.658
		h-0.537V226.863z"/>
	<path fill="#FFFFFF" d="M213.65,238.625h-5.541v-21.318h5.541V238.625z"/>
	<path fill="#FFFFFF" d="M222.698,234.921l-1.472,3.704h-5.881l8.2-21.318h6.052l8.028,21.318h-5.909l-1.386-3.704H222.698z
		 M226.572,223.895h-0.057l-2.291,6.785h4.608L226.572,223.895z"/>
</g>
</svg>
