<?xml version="1.0" encoding="utf-8"?>
<!-- Generator: Adobe Illustrator 16.0.3, SVG Export Plug-In . SVG Version: 6.00 Build 0)  -->
<!DOCTYPE svg PUBLIC "-//W3C//DTD SVG 1.1//EN" "http://www.w3.org/Graphics/SVG/1.1/DTD/svg11.dtd">
<svg version="1.1" id="Layer_1" xmlns="http://www.w3.org/2000/svg" xmlns:xlink="http://www.w3.org/1999/xlink" x="0px" y="0px"
	 width="250px" height="250px" viewBox="0 0 250 250" enable-background="new 0 0 250 250" xml:space="preserve">
<path fill="#FFFFFF" d="M60.15,226.482c0,4.742-2.958,4.722-8.908,4.563h-1.43v-9.25h1.146
	C56.404,221.803,60.15,221.428,60.15,226.482z M58.62,209.296c-0.024,3.655-2.399,4.308-6.05,4.169h-2.757v-8.338h2.3
	C56.342,205.127,58.65,205.045,58.62,209.296z M62.662,216.548c3.483-1.771,6.238-4.913,6.238-8.793
	c0-8.222-5.141-11.192-12.793-11.192H38.621v43.061h17.248c7.877,0,15.589-2.971,15.589-11.993c0-5.993-2.63-10.161-8.796-10.964
	V216.548z M101.967,223.57h-9.804l4.75-14.701h0.363L101.967,223.57z M118.979,239.616l-15.718-43.056H91.039l-16.063,43.056h11.875
	l2.973-7.479h14.424l2.797,7.479H118.979z M149.24,196.355v23.412c0,5.601-0.629,11.695-7.484,11.695
	c-6.852,0-7.479-6.104-7.479-11.695v-23.412H123.61v24.951c0,5.541,0.219,11.021,4.297,15.188c3.428,3.545,9.063,4.797,13.85,4.797
	c4.785,0,10.421-1.252,13.854-4.797c4.072-4.164,4.297-9.646,4.297-15.188v-24.951H149.24z M197.605,206.04v-9.479h-26.992v43.062
	h26.992v-9.479h-15.795v-7.427h15.104v-9.479h-15.104v-7.191L197.605,206.04L197.605,206.04z M228.359,210.493
	c0,4.687-4.108,5.37-7.771,5.37h-1.084v-10.736h1.084C224.251,205.127,228.359,205.813,228.359,210.493z M240.008,209.811
	c0-9.188-6.449-13.248-14.961-13.248H208.32v43.061h11.188v-16.563h0.111l10.566,16.563h13.938l-13.54-17.646
	C236.695,220.889,240.008,215.747,240.008,209.811z"/>
<polygon fill="#FFFFFF" points="225.982,155.525 94.625,24.166 225.982,24.166 "/>
<rect fill="#C6CE21" width="250.932" height="250.414"/>
<rect x="78.625" y="215" fill="none" width="160.375" height="27"/>
<g enable-background="new    ">
	<path fill="#FFFFFF" d="M102.295,226.857c-0.058,3.19-0.291,5.917-2.234,8.645c-2.146,2.987-5.366,4.293-9.021,4.293
		c-6.875,0-11.661-4.671-11.661-11.545c0-7.107,4.815-11.777,11.864-11.777c4.496,0,7.977,2.03,9.862,6.121l-5.396,2.262
		c-0.783-2.088-2.437-3.48-4.728-3.48c-3.742,0-5.686,3.568-5.686,6.903c0,3.395,2.031,6.846,5.772,6.846
		c2.466,0,4.351-1.276,4.583-3.8h-4.641v-4.467H102.295z"/>
	<path fill="#FFFFFF" d="M110.585,222.014v3.654h6.41v4.815h-6.41v3.771h6.758v4.815h-12.444v-21.871h12.444v4.815H110.585z"/>
	<path fill="#FFFFFF" d="M139.037,239.069h-7.078l-5.367-8.412h-0.057v8.412h-5.686v-21.871h8.499c4.322,0,7.6,2.06,7.6,6.729
		c0,3.017-1.682,5.627-4.785,6.179L139.037,239.069z M126.535,227.003h0.551c1.855,0,3.945-0.349,3.945-2.728
		c0-2.378-2.09-2.727-3.945-2.727h-0.551V227.003z"/>
	<path fill="#FFFFFF" d="M142.977,217.198h5.598l4.438,11.689l4.699-11.689h5.656l3.308,21.871h-5.686l-1.596-12.589h-0.059
		l-5.25,12.589h-2.262l-5.02-12.589h-0.057l-1.828,12.589h-5.656L142.977,217.198z"/>
	<path fill="#FFFFFF" d="M174.645,235.27l-1.508,3.8h-6.034l8.412-21.871h6.208l8.237,21.871h-6.062l-1.422-3.8H174.645z
		 M178.619,223.957h-0.059l-2.35,6.961h4.729L178.619,223.957z"/>
	<path fill="#FFFFFF" d="M191.725,217.198h5.686l10.412,13.372h0.059v-13.372h5.686v21.871h-5.686l-10.414-13.401h-0.057v13.401
		h-5.686V217.198z"/>
	<path fill="#FFFFFF" d="M214.865,217.198h6.816l4.09,5.946l4.09-5.946h6.817l-8.063,11.37v10.501h-5.686v-10.501L214.865,217.198z"
		/>
</g>
</svg>
