<?xml version="1.0" encoding="utf-8"?>
<!-- Generator: Adobe Illustrator 15.0.2, SVG Export Plug-In . SVG Version: 6.00 Build 0)  -->
<!DOCTYPE svg PUBLIC "-//W3C//DTD SVG 1.1//EN" "http://www.w3.org/Graphics/SVG/1.1/DTD/svg11.dtd">
<svg version="1.1" id="Layer_1" xmlns="http://www.w3.org/2000/svg" xmlns:xlink="http://www.w3.org/1999/xlink" x="0px" y="0px"
	 width="250px" height="250px" viewBox="0 0 250 250" enable-background="new 0 0 250 250" xml:space="preserve">
<path fill="#FFFFFF" d="M60.15,226.482c0,4.742-2.958,4.722-8.908,4.563h-1.43v-9.25h1.146
	C56.404,221.802,60.15,221.427,60.15,226.482z M58.62,209.296c-0.024,3.655-2.399,4.308-6.05,4.169h-2.757v-8.338h2.3
	C56.342,205.127,58.65,205.045,58.62,209.296z M62.662,216.548c3.483-1.771,6.238-4.913,6.238-8.793
	c0-8.222-5.141-11.192-12.793-11.192H38.621v43.061h17.248c7.877,0,15.589-2.971,15.589-11.993c0-5.994-2.63-10.162-8.796-10.964
	V216.548z M101.967,223.57h-9.804l4.75-14.701h0.363L101.967,223.57z M118.979,239.616l-15.718-43.056H91.039l-16.063,43.056h11.875
	l2.973-7.48h14.424l2.797,7.48H118.979z M149.24,196.355v23.412c0,5.601-0.629,11.695-7.484,11.695
	c-6.852,0-7.479-6.104-7.479-11.695v-23.412H123.61v24.951c0,5.541,0.219,11.021,4.297,15.188c3.428,3.545,9.063,4.797,13.85,4.797
	c4.785,0,10.421-1.252,13.854-4.797c4.072-4.164,4.297-9.646,4.297-15.188v-24.951H149.24z M197.605,206.04v-9.479h-26.992v43.062
	h26.992v-9.479h-15.795v-7.427h15.104v-9.479h-15.104v-7.191L197.605,206.04L197.605,206.04z M228.359,210.493
	c0,4.687-4.108,5.37-7.771,5.37h-1.084v-10.736h1.084C224.251,205.127,228.359,205.813,228.359,210.493z M240.008,209.811
	c0-9.188-6.449-13.248-14.961-13.248H208.32v43.061h11.188v-16.563h0.111l10.566,16.563h13.938l-13.54-17.646
	C236.695,220.889,240.008,215.747,240.008,209.811z"/>
<polygon fill="#FFFFFF" points="225.982,155.525 94.625,24.166 225.982,24.166 "/>
<rect fill="#8BBC35" width="250.932" height="250.414"/>
<g>
	<path fill="#FFFFFF" d="M116.679,216.768v12.299c0,2.813-0.116,5.599-2.292,7.716c-1.827,1.799-4.699,2.437-7.251,2.437
		c-2.553,0-5.425-0.638-7.252-2.437c-2.176-2.117-2.292-4.902-2.292-7.716v-12.299h5.686v11.516c0,2.843,0.203,5.946,3.858,5.946
		c3.654,0,3.857-3.104,3.857-5.946v-11.516H116.679z"/>
	<path fill="#FFFFFF" d="M132.888,216.768h7.049l-8.702,10.355l9.485,11.516h-7.368l-7.339-9.485h-0.058v9.485h-5.686v-21.871h5.686
		v9.021h0.058L132.888,216.768z"/>
	<path fill="#FFFFFF" d="M160.438,238.639h-7.078l-5.366-8.412h-0.058v8.412h-5.686v-21.871h8.499c4.322,0,7.6,2.06,7.6,6.729
		c0,3.017-1.683,5.627-4.786,6.179L160.438,238.639z M147.937,226.572h0.551c1.856,0,3.945-0.349,3.945-2.728
		c0-2.378-2.089-2.727-3.945-2.727h-0.551V226.572z"/>
	<path fill="#FFFFFF" d="M167.54,234.839l-1.509,3.8h-6.033l8.412-21.871h6.208l8.237,21.871h-6.063l-1.421-3.8H167.54z
		 M171.514,223.526h-0.058l-2.35,6.961h4.729L171.514,223.526z"/>
	<path fill="#FFFFFF" d="M190.305,238.639h-5.686v-21.871h5.686V238.639z"/>
	<path fill="#FFFFFF" d="M194.015,216.768h5.686l10.413,13.372h0.059v-13.372h5.685v21.871h-5.685l-10.414-13.401H199.7v13.401
		h-5.686V216.768z"/>
	<path fill="#FFFFFF" d="M225.249,221.583v3.654h6.41v4.815h-6.41v3.771h6.759v4.815h-12.444v-21.871h12.444v4.815H225.249z"/>
</g>
</svg>
