<?xml version="1.0" encoding="utf-8"?>
<!-- Generator: Adobe Illustrator 16.0.3, SVG Export Plug-In . SVG Version: 6.00 Build 0)  -->
<!DOCTYPE svg PUBLIC "-//W3C//DTD SVG 1.1//EN" "http://www.w3.org/Graphics/SVG/1.1/DTD/svg11.dtd">
<svg version="1.1" id="Layer_1" xmlns="http://www.w3.org/2000/svg" xmlns:xlink="http://www.w3.org/1999/xlink" x="0px" y="0px"
	 width="250px" height="250px" viewBox="0 0 250 250" enable-background="new 0 0 250 250" xml:space="preserve">
<path fill="#FFFFFF" d="M60.15,226.482c0,4.742-2.958,4.722-8.908,4.564h-1.43v-9.25h1.146
	C56.404,221.803,60.15,221.428,60.15,226.482z M58.62,209.296c-0.024,3.655-2.399,4.308-6.05,4.169h-2.757v-8.338h2.3
	C56.342,205.127,58.65,205.045,58.62,209.296z M62.662,216.548c3.483-1.771,6.238-4.913,6.238-8.793
	c0-8.222-5.141-11.192-12.793-11.192H38.621v43.059h17.248c7.877,0,15.589-2.969,15.589-11.993c0-5.994-2.63-10.162-8.796-10.964
	V216.548z M101.967,223.57h-9.804l4.75-14.701h0.363L101.967,223.57z M118.979,239.616l-15.718-43.056H91.039l-16.063,43.056h11.875
	l2.973-7.479h14.424l2.797,7.479H118.979z M149.24,196.355v23.412c0,5.601-0.629,11.697-7.484,11.697
	c-6.852,0-7.479-6.102-7.479-11.697v-23.412H123.61v24.951c0,5.541,0.219,11.021,4.297,15.188c3.428,3.545,9.063,4.797,13.85,4.797
	c4.785,0,10.421-1.252,13.854-4.797c4.072-4.164,4.297-9.646,4.297-15.188v-24.951H149.24z M197.605,206.04v-9.479h-26.992v43.06
	h26.992v-9.479h-15.795v-7.426h15.106v-9.479h-15.106v-7.193L197.605,206.04L197.605,206.04z M228.359,210.493
	c0,4.687-4.108,5.37-7.771,5.37h-1.084v-10.736h1.084C224.251,205.127,228.359,205.813,228.359,210.493z M240.008,209.811
	c0-9.188-6.449-13.248-14.961-13.248H208.32v43.059h11.188v-16.561h0.111l10.566,16.561h13.938l-13.54-17.646
	C236.695,220.889,240.008,215.747,240.008,209.811z"/>
<polygon fill="#FFFFFF" points="225.982,155.525 94.625,24.166 225.982,24.166 "/>
<rect fill="#825D9A" width="250.932" height="250.414"/>
<rect x="117.954" y="214.496" fill="none" width="119.421" height="25.189"/>
<g enable-background="new    ">
	<path fill="#FFFFFF" d="M125.496,221.51v3.654h6.236v4.815h-6.236v8.586h-5.686v-21.871h12.561v4.815H125.496z"/>
	<path fill="#FFFFFF" d="M153.716,238.565h-7.077l-5.367-8.412h-0.058v8.412h-5.686v-21.871h8.499c4.322,0,7.6,2.06,7.6,6.729
		c0,3.017-1.682,5.627-4.786,6.179L153.716,238.565z M141.214,226.499h0.551c1.856,0,3.945-0.349,3.945-2.728
		c0-2.378-2.089-2.727-3.945-2.727h-0.551V226.499z"/>
	<path fill="#FFFFFF" d="M160.817,234.766l-1.509,3.8h-6.033l8.412-21.871h6.207l8.238,21.871h-6.063l-1.421-3.8H160.817z
		 M164.791,223.453h-0.058l-2.35,6.961h4.728L164.791,223.453z"/>
	<path fill="#FFFFFF" d="M177.896,216.694h5.686l10.414,13.372h0.058v-13.372h5.686v21.871h-5.686l-10.413-13.401h-0.059v13.401
		h-5.686V216.694z"/>
	<path fill="#FFFFFF" d="M219.08,224.033c-1.16-1.566-3.045-2.408-4.988-2.408c-3.481,0-5.831,2.669-5.831,6.063
		c0,3.452,2.379,5.946,5.917,5.946c1.857,0,3.713-0.898,4.902-2.32v6.816c-1.885,0.581-3.248,1.016-5.018,1.016
		c-3.046,0-5.947-1.16-8.209-3.22c-2.408-2.176-3.51-5.019-3.51-8.267c0-2.988,1.131-5.859,3.22-8.006
		c2.146-2.205,5.25-3.539,8.325-3.539c1.827,0,3.51,0.406,5.191,1.102V224.033z"/>
	<path fill="#FFFFFF" d="M228.271,221.51v3.654h6.41v4.815h-6.41v3.771h6.758v4.815h-12.443v-21.871h12.443v4.815H228.271z"/>
</g>
</svg>
