<?xml version="1.0" encoding="utf-8"?>
<!-- Generator: Adobe Illustrator 15.0.2, SVG Export Plug-In . SVG Version: 6.00 Build 0)  -->
<!DOCTYPE svg PUBLIC "-//W3C//DTD SVG 1.1//EN" "http://www.w3.org/Graphics/SVG/1.1/DTD/svg11.dtd">
<svg version="1.1" id="Layer_1" xmlns="http://www.w3.org/2000/svg" xmlns:xlink="http://www.w3.org/1999/xlink" x="0px" y="0px"
	 width="250px" height="250px" viewBox="0 0 250 250" enable-background="new 0 0 250 250" xml:space="preserve">
<path fill="#FFFFFF" d="M60.15,226.482c0,4.742-2.958,4.722-8.908,4.564h-1.43v-9.25h1.146
	C56.404,221.802,60.15,221.427,60.15,226.482z M58.62,209.296c-0.024,3.655-2.399,4.308-6.05,4.169h-2.757v-8.338h2.3
	C56.342,205.127,58.65,205.045,58.62,209.296z M62.662,216.548c3.483-1.771,6.238-4.913,6.238-8.793
	c0-8.222-5.141-11.192-12.793-11.192H38.621v43.059h17.248c7.877,0,15.589-2.969,15.589-11.993c0-5.994-2.63-10.162-8.796-10.964
	V216.548z M101.967,223.57h-9.804l4.75-14.701h0.363L101.967,223.57z M118.979,239.616l-15.718-43.056H91.039l-16.063,43.056h11.875
	l2.973-7.48h14.424l2.797,7.48H118.979z M149.24,196.355v23.412c0,5.601-0.629,11.697-7.484,11.697
	c-6.852,0-7.479-6.102-7.479-11.697v-23.412H123.61v24.951c0,5.541,0.219,11.021,4.297,15.188c3.428,3.545,9.063,4.797,13.85,4.797
	c4.785,0,10.421-1.252,13.854-4.797c4.072-4.164,4.297-9.646,4.297-15.188v-24.951H149.24z M197.605,206.04v-9.479h-26.992v43.06
	h26.992v-9.479h-15.795v-7.426h15.106v-9.479h-15.106v-7.193L197.605,206.04L197.605,206.04z M228.359,210.493
	c0,4.687-4.108,5.37-7.771,5.37h-1.084v-10.736h1.084C224.251,205.127,228.359,205.813,228.359,210.493z M240.008,209.811
	c0-9.188-6.449-13.248-14.961-13.248H208.32v43.059h11.188v-16.561h0.111l10.566,16.561h13.938l-13.54-17.646
	C236.695,220.889,240.008,215.747,240.008,209.811z"/>
<polygon fill="#FFFFFF" points="225.982,155.525 94.625,24.166 225.982,24.166 "/>
<rect fill="#8B72A7" width="250.932" height="250.414"/>
<g>
	<path fill="#FFFFFF" d="M97.848,222.245c-1.044-0.87-2.379-1.45-3.771-1.45c-1.045,0-2.437,0.609-2.437,1.827
		c0,1.276,1.537,1.77,2.523,2.089l1.45,0.436c3.046,0.898,5.396,2.437,5.396,5.975c0,2.176-0.522,4.409-2.263,5.889
		c-1.712,1.45-4.003,2.06-6.208,2.06c-2.755,0-5.453-0.928-7.687-2.494l2.437-4.583c1.422,1.247,3.104,2.262,5.048,2.262
		c1.334,0,2.755-0.667,2.755-2.204c0-1.596-2.233-2.146-3.451-2.495c-3.568-1.015-5.918-1.943-5.918-6.178
		c0-4.438,3.162-7.339,7.542-7.339c2.204,0,4.902,0.696,6.846,1.798L97.848,222.245z"/>
	<path fill="#FFFFFF" d="M109.389,233.674h6.816v4.815h-12.502v-21.871h5.686V233.674z"/>
	<path fill="#FFFFFF" d="M141.147,227.147c0,7.078-5.076,12.067-12.097,12.067c-7.02,0-12.096-4.989-12.096-12.067
		c0-6.613,5.802-11.255,12.096-11.255C135.346,215.893,141.147,220.534,141.147,227.147z M122.873,227.177
		c0,3.771,2.784,6.526,6.178,6.526c3.395,0,6.179-2.756,6.179-6.526c0-3.017-2.784-5.772-6.179-5.772
		C125.657,221.404,122.873,224.16,122.873,227.177z"/>
	<path fill="#FFFFFF" d="M152.946,229.903l5.309-13.285h6.179l-9.341,21.871h-4.409l-9.195-21.871h6.179L152.946,229.903z"/>
	<path fill="#FFFFFF" d="M168.808,234.689l-1.509,3.8h-6.033l8.412-21.871h6.208l8.237,21.871h-6.063l-1.421-3.8H168.808z
		 M172.781,223.377h-0.058l-2.35,6.961h4.729L172.781,223.377z"/>
	<path fill="#FFFFFF" d="M198.505,216.618h7.049l-8.702,10.355l9.485,11.516h-7.368l-7.339-9.485h-0.058v9.485h-5.686v-21.871h5.686
		v9.021h0.058L198.505,216.618z"/>
	<path fill="#FFFFFF" d="M213.554,238.489h-5.686v-21.871h5.686V238.489z"/>
	<path fill="#FFFFFF" d="M222.833,234.689l-1.509,3.8h-6.033l8.412-21.871h6.208l8.237,21.871h-6.063l-1.421-3.8H222.833z
		 M226.807,223.377h-0.058l-2.35,6.961h4.729L226.807,223.377z"/>
</g>
</svg>
