<?xml version="1.0" encoding="utf-8"?>
<!-- Generator: Adobe Illustrator 16.0.3, SVG Export Plug-In . SVG Version: 6.00 Build 0)  -->
<!DOCTYPE svg PUBLIC "-//W3C//DTD SVG 1.1//EN" "http://www.w3.org/Graphics/SVG/1.1/DTD/svg11.dtd">
<svg version="1.1" id="Layer_1" xmlns="http://www.w3.org/2000/svg" xmlns:xlink="http://www.w3.org/1999/xlink" x="0px" y="0px"
	 width="250px" height="250px" viewBox="0 0 250 250" enable-background="new 0 0 250 250" xml:space="preserve">
<path fill="#FFFFFF" d="M60.15,226.482c0,4.742-2.958,4.722-8.908,4.565h-1.43v-9.25h1.146
	C56.404,221.803,60.15,221.428,60.15,226.482z M58.62,209.296c-0.024,3.655-2.399,4.308-6.05,4.169h-2.757v-8.338h2.3
	C56.342,205.127,58.65,205.045,58.62,209.296z M62.662,216.548c3.483-1.771,6.238-4.913,6.238-8.793
	c0-8.222-5.141-11.192-12.793-11.192H38.621v43.058h17.248c7.877,0,15.589-2.968,15.589-11.993c0-5.994-2.63-10.162-8.796-10.964
	V216.548z M101.967,223.57h-9.804l4.75-14.701h0.363L101.967,223.57z M118.979,239.616l-15.718-43.056H91.039l-16.063,43.056h11.875
	l2.973-7.479h14.424l2.797,7.479H118.979z M149.24,196.355v23.412c0,5.601-0.629,11.698-7.484,11.698
	c-6.852,0-7.479-6.103-7.479-11.698v-23.412H123.61v24.951c0,5.541,0.219,11.021,4.297,15.188c3.428,3.545,9.063,4.797,13.85,4.797
	c4.785,0,10.421-1.252,13.854-4.797c4.072-4.164,4.297-9.646,4.297-15.188v-24.951H149.24z M197.605,206.04v-9.479h-26.992v43.059
	h26.992v-9.479h-15.795v-7.426h15.107v-9.479h-15.107v-7.193L197.605,206.04L197.605,206.04z M228.359,210.493
	c0,4.687-4.108,5.37-7.77,5.37h-1.084v-10.736h1.084C224.251,205.127,228.359,205.813,228.359,210.493z M240.008,209.811
	c0-9.188-6.449-13.248-14.961-13.248H208.32v43.058h11.188v-16.56h0.111l10.566,16.56h13.938l-13.54-17.646
	C236.695,220.889,240.008,215.747,240.008,209.811z"/>
<polygon fill="#FFFFFF" points="225.982,155.525 94.625,24.166 225.982,24.166 "/>
<rect fill="#6A3A84" width="250.932" height="250.414"/>
<rect x="117.386" y="214.561" fill="none" width="122.941" height="27.517"/>
<g enable-background="new    ">
	<path fill="#FFFFFF" d="M121.65,216.76h5.598l4.438,11.689l4.699-11.689h5.656l3.308,21.871h-5.686l-1.595-12.589h-0.059
		l-5.25,12.589h-2.263l-5.019-12.589h-0.058l-1.828,12.589h-5.656L121.65,216.76z"/>
	<path fill="#FFFFFF" d="M153.435,221.575v3.654h6.41v4.815h-6.41v3.771h6.759v4.815h-12.444V216.76h12.444v4.815H153.435z"/>
	<path fill="#FFFFFF" d="M163.176,216.76h6.991l3.335,5.656l3.336-5.656h6.991l-6.991,10.182l8.094,11.689h-6.846l-4.584-7.136
		l-5.018,7.136h-6.875l8.558-11.689L163.176,216.76z"/>
	<path fill="#FFFFFF" d="M192.265,238.631h-5.686V216.76h5.686V238.631z"/>
	<path fill="#FFFFFF" d="M211.609,224.099c-1.16-1.566-3.046-2.408-4.989-2.408c-3.481,0-5.831,2.669-5.831,6.063
		c0,3.452,2.379,5.946,5.918,5.946c1.856,0,3.713-0.898,4.902-2.32v6.816c-1.885,0.581-3.249,1.016-5.018,1.016
		c-3.047,0-5.947-1.16-8.209-3.22c-2.408-2.176-3.51-5.019-3.51-8.267c0-2.988,1.131-5.859,3.219-8.006
		c2.146-2.205,5.25-3.539,8.325-3.539c1.827,0,3.51,0.406,5.192,1.102V224.099z"/>
	<path fill="#FFFFFF" d="M238.203,227.289c0,7.078-5.076,12.067-12.096,12.067s-12.096-4.989-12.096-12.067
		c0-6.613,5.802-11.255,12.096-11.255C232.402,216.034,238.203,220.676,238.203,227.289z M219.93,227.318
		c0,3.771,2.784,6.526,6.178,6.526c3.395,0,6.179-2.756,6.179-6.526c0-3.017-2.784-5.772-6.179-5.772
		C222.714,221.546,219.93,224.302,219.93,227.318z"/>
</g>
</svg>
