<?xml version="1.0" encoding="utf-8"?>
<!-- Generator: Adobe Illustrator 16.0.3, SVG Export Plug-In . SVG Version: 6.00 Build 0)  -->
<!DOCTYPE svg PUBLIC "-//W3C//DTD SVG 1.1//EN" "http://www.w3.org/Graphics/SVG/1.1/DTD/svg11.dtd">
<svg version="1.1" id="Layer_1" xmlns="http://www.w3.org/2000/svg" xmlns:xlink="http://www.w3.org/1999/xlink" x="0px" y="0px"
	 width="250px" height="250px" viewBox="0 0 250 250" enable-background="new 0 0 250 250" xml:space="preserve">
<path fill="#FFFFFF" d="M60.15,226.482c0,4.742-2.958,4.722-8.908,4.566h-1.43v-9.25h1.146
	C56.404,221.803,60.15,221.428,60.15,226.482z M58.62,209.296c-0.024,3.655-2.399,4.308-6.05,4.169h-2.757v-8.338h2.3
	C56.342,205.127,58.65,205.045,58.62,209.296z M62.662,216.548c3.483-1.771,6.238-4.913,6.238-8.793
	c0-8.222-5.141-11.192-12.793-11.192H38.621v43.057h17.248c7.877,0,15.589-2.967,15.589-11.993c0-5.994-2.63-10.162-8.796-10.964
	V216.548z M101.967,223.57h-9.804l4.75-14.701h0.363L101.967,223.57z M118.979,239.616l-15.718-43.056H91.039l-16.063,43.056h11.875
	l2.973-7.479h14.424l2.797,7.479H118.979z M149.24,196.355v23.412c0,5.601-0.629,11.701-7.484,11.701
	c-6.852,0-7.479-6.104-7.479-11.701v-23.412H123.61v24.951c0,5.541,0.219,11.021,4.297,15.188c3.428,3.545,9.063,4.797,13.85,4.797
	c4.785,0,10.421-1.252,13.854-4.797c4.072-4.164,4.297-9.646,4.297-15.188v-24.951H149.24z M197.605,206.04v-9.479h-26.992v43.058
	h26.992v-9.479h-15.795v-7.425h15.108v-9.479h-15.108v-7.193L197.605,206.04L197.605,206.04z M228.359,210.493
	c0,4.687-4.108,5.37-7.769,5.37h-1.084v-10.736h1.084C224.251,205.127,228.359,205.813,228.359,210.493z M240.008,209.811
	c0-9.188-6.449-13.248-14.961-13.248H208.32v43.057h11.188v-16.559h0.111l10.566,16.559h13.938l-13.54-17.645
	C236.695,220.889,240.008,215.747,240.008,209.811z"/>
<polygon fill="#FFFFFF" points="225.982,155.525 94.625,24.166 225.982,24.166 "/>
<rect fill="#E2001A" width="250.932" height="250.414"/>
<g>
	<path fill="#FFFFFF" d="M95.747,203.859h-5.686v-17.055h-4.699v-4.816h15.084v4.816h-4.699V203.859z"/>
	<path fill="#FFFFFF" d="M116.396,190.43v-8.439h5.686v21.871h-5.686v-8.963h-8.209v8.963h-5.686V181.99h5.686v8.439H116.396z"/>
	<path fill="#FFFFFF" d="M131.475,203.859h-5.686v-21.871h5.686V203.859z"/>
	<path fill="#FFFFFF" d="M135.186,181.988h5.686l10.413,13.373h0.059v-13.373h5.685v21.871h-5.685l-10.413-13.4h-0.059v13.4h-5.686
		V181.988z"/>
	<path fill="#FFFFFF" d="M173.352,181.988h7.049l-8.701,10.355l9.484,11.516h-7.367l-7.34-9.484h-0.058v9.484h-5.687v-21.871h5.687
		v9.021h0.058L173.352,181.988z"/>
	<path fill="#FFFFFF" d="M188.4,203.859h-5.687v-21.871h5.687V203.859z"/>
	<path fill="#FFFFFF" d="M192.109,181.988h5.687l10.413,13.373h0.059v-13.373h5.686v21.871h-5.686l-10.414-13.4h-0.058v13.4h-5.687
		V181.988z"/>
	<path fill="#FFFFFF" d="M239.473,191.648c-0.059,3.189-0.289,5.916-2.232,8.645c-2.146,2.986-5.366,4.293-9.021,4.293
		c-6.875,0-11.66-4.671-11.66-11.545c0-7.107,4.814-11.777,11.863-11.777c4.496,0,7.977,2.03,9.862,6.121l-5.396,2.262
		c-0.783-2.088-2.438-3.479-4.729-3.479c-3.742,0-5.686,3.567-5.686,6.903c0,3.395,2.029,6.846,5.771,6.846
		c2.465,0,4.352-1.275,4.583-3.8h-4.642v-4.468H239.473L239.473,191.648z"/>
	<path fill="#FFFFFF" d="M88.784,216.789h8.702c4.699,0,7.948,2.176,7.948,7.193c0,5.162-2.785,7.426-7.745,7.426h-3.22v7.252
		h-5.686L88.784,216.789L88.784,216.789z M94.47,226.825h0.957c2.06,0,4.09,0,4.09-2.669c0-2.756-1.886-2.784-4.09-2.784H94.47
		V226.825z"/>
	<path fill="#FFFFFF" d="M131.043,227.318c0,7.078-5.076,12.066-12.097,12.066c-7.02,0-12.096-4.988-12.096-12.066
		c0-6.613,5.802-11.256,12.096-11.256C125.241,216.063,131.043,220.705,131.043,227.318z M112.769,227.348
		c0,3.771,2.784,6.526,6.178,6.526c3.395,0,6.179-2.756,6.179-6.526c0-3.017-2.784-5.771-6.179-5.771
		C115.553,221.575,112.769,224.331,112.769,227.348z"/>
	<path fill="#FFFFFF" d="M133.676,216.789h8.702c4.699,0,7.948,2.176,7.948,7.193c0,5.162-2.785,7.426-7.745,7.426h-3.22v7.252
		h-5.687L133.676,216.789L133.676,216.789z M139.361,226.825h0.957c2.06,0,4.09,0,4.09-2.669c0-2.756-1.887-2.784-4.09-2.784h-0.957
		V226.825z"/>
	<path fill="#FFFFFF" d="M171.814,216.789v12.299c0,2.813-0.115,5.6-2.291,7.717c-1.828,1.799-4.699,2.437-7.252,2.437
		s-5.424-0.638-7.252-2.437c-2.176-2.117-2.291-4.902-2.291-7.717v-12.299h5.686v11.516c0,2.844,0.203,5.946,3.857,5.946
		s3.857-3.104,3.857-5.946v-11.516H171.814z"/>
	<path fill="#FFFFFF" d="M181.092,233.846h6.816v4.814h-12.502v-21.871h5.686V233.846z"/>
	<path fill="#FFFFFF" d="M195.33,234.859l-1.51,3.801h-6.032l8.412-21.871h6.208l8.236,21.871h-6.063l-1.421-3.801H195.33z
		 M199.305,223.548h-0.059l-2.35,6.961h4.729L199.305,223.548z"/>
	<path fill="#FFFFFF" d="M230.598,238.66h-7.078l-5.367-8.412h-0.057v8.412h-5.687v-21.871h8.499c4.322,0,7.6,2.061,7.6,6.729
		c0,3.018-1.683,5.627-4.785,6.18L230.598,238.66z M218.096,226.594h0.551c1.855,0,3.944-0.349,3.944-2.728
		c0-2.378-2.089-2.728-3.944-2.728h-0.551V226.594z"/>
	<path fill="#FFFFFF" d="M238.654,235.848c0,1.855-1.508,3.394-3.393,3.394c-1.887,0-3.395-1.537-3.395-3.394
		c0-1.887,1.508-3.395,3.395-3.395C237.146,232.453,238.654,233.961,238.654,235.848z"/>
</g>
</svg>
