<?xml version="1.0" encoding="utf-8"?>
<!-- Generator: Adobe Illustrator 16.0.3, SVG Export Plug-In . SVG Version: 6.00 Build 0)  -->
<!DOCTYPE svg PUBLIC "-//W3C//DTD SVG 1.1//EN" "http://www.w3.org/Graphics/SVG/1.1/DTD/svg11.dtd">
<svg version="1.1" id="Layer_1" xmlns="http://www.w3.org/2000/svg" xmlns:xlink="http://www.w3.org/1999/xlink" x="0px" y="0px"
	 width="250px" height="250px" viewBox="0 0 250 250" enable-background="new 0 0 250 250" xml:space="preserve">
<path fill="#FFFFFF" d="M60.15,226.482c0,4.742-2.958,4.722-8.908,4.567h-1.43v-9.25h1.146
	C56.404,221.803,60.15,221.428,60.15,226.482z M58.62,209.296c-0.024,3.655-2.399,4.308-6.05,4.169h-2.757v-8.338h2.3
	C56.342,205.127,58.65,205.045,58.62,209.296z M62.662,216.548c3.483-1.771,6.238-4.913,6.238-8.793
	c0-8.222-5.141-11.192-12.793-11.192H38.621v43.056h17.248c7.877,0,15.589-2.966,15.589-11.993c0-5.994-2.63-10.162-8.796-10.964
	V216.548z M101.967,223.57h-9.804l4.75-14.701h0.363L101.967,223.57z M118.979,239.616l-15.718-43.056H91.039l-16.063,43.056h11.875
	l2.973-7.479h14.424l2.797,7.479H118.979z M149.24,196.355v23.412c0,5.601-0.629,11.701-7.484,11.701
	c-6.852,0-7.479-6.103-7.479-11.701v-23.412H123.61v24.951c0,5.541,0.219,11.022,4.297,15.188c3.428,3.545,9.063,4.797,13.85,4.797
	c4.785,0,10.421-1.252,13.854-4.797c4.072-4.164,4.297-9.646,4.297-15.188v-24.951H149.24z M197.605,206.04v-9.479h-26.992v43.057
	h26.992v-9.479h-15.795v-7.425h15.109v-9.479h-15.109v-7.194H197.605L197.605,206.04z M228.359,210.493
	c0,4.687-4.108,5.37-7.768,5.37h-1.084v-10.736h1.084C224.251,205.127,228.359,205.813,228.359,210.493z M240.008,209.811
	c0-9.188-6.449-13.248-14.961-13.248H208.32v43.056h11.188v-16.558h0.111l10.566,16.558h13.938l-13.54-17.644
	C236.695,220.889,240.008,215.747,240.008,209.811z"/>
<polygon fill="#FFFFFF" points="225.982,155.525 94.625,24.166 225.982,24.166 "/>
<rect fill="#ED8008" width="250.932" height="250.414"/>
<g>
	<path fill="#FFFFFF" d="M102.296,239.273h-7.167l-5.434-8.519h-0.059v8.519h-5.757v-22.146h8.606c4.376,0,7.696,2.086,7.696,6.814
		c0,3.055-1.704,5.697-4.847,6.256L102.296,239.273z M89.636,227.055h0.558c1.88,0,3.995-0.352,3.995-2.761
		c0-2.407-2.115-2.761-3.995-2.761h-0.558V227.055z"/>
	<path fill="#FFFFFF" d="M127.232,227.789c0,7.168-5.14,12.22-12.249,12.22s-12.249-5.052-12.249-12.22
		c0-6.695,5.875-11.396,12.249-11.396S127.232,221.094,127.232,227.789z M108.729,227.818c0,3.818,2.82,6.609,6.256,6.609
		c3.437,0,6.256-2.791,6.256-6.609c0-3.055-2.819-5.846-6.256-5.846C111.548,221.975,108.729,224.764,108.729,227.818z"/>
	<path fill="#FFFFFF" d="M132.344,217.127h5.67l4.494,11.838l4.758-11.838h5.729l3.349,22.146h-5.757l-1.615-12.748h-0.059
		l-5.316,12.748h-2.291l-5.082-12.748h-0.059l-1.852,12.748h-5.729L132.344,217.127z"/>
	<path fill="#FFFFFF" d="M164.42,235.428l-1.527,3.848h-6.108l8.519-22.147h6.285l8.342,22.147h-6.139l-1.439-3.848H164.42z
		 M168.443,223.971h-0.059l-2.38,7.051h4.788L168.443,223.971z"/>
	<path fill="#FFFFFF" d="M181.721,217.127h5.758l10.545,13.541h0.06v-13.541h5.757v22.146h-5.757l-10.546-13.569h-0.059v13.569
		h-5.758V217.127L181.721,217.127z"/>
	<path fill="#FFFFFF" d="M213.355,239.273h-5.758v-22.146h5.758V239.273z"/>
	<path fill="#FFFFFF" d="M222.755,235.428l-1.526,3.848h-6.109l8.518-22.147h6.286l8.343,22.147h-6.14l-1.438-3.848H222.755z
		 M226.779,223.971h-0.059l-2.381,7.051h4.788L226.779,223.971z"/>
</g>
</svg>
